<svg width="171" height="149" viewBox="0 0 171 149" fill="none" xmlns="http://www.w3.org/2000/svg">
<path d="M82.8 32.5C82.8 32.5 69.4 58.9 47.6 76.5C18.8 99.7 0 103 0 103L52.2 101.3C52.2 101.3 72.9 71.1 82.8 32.5Z" fill="#FD5108"/>
<path d="M88.1 31.8C88.1 31.8 101.6 58.1 123.4 75.7C152.2 98.8999 171 102.2 171 102.2L118.8 100.6C118.8 100.6 98.1 70.4 88.1 31.8Z" fill="#FD5108"/>
<path d="M88.1 31.8C88.1 31.8 101.6 58.1 123.4 75.7C152.2 98.8999 171 102.2 171 102.2L118.8 100.6C118.8 100.6 98.1 70.4 88.1 31.8Z" fill="#FD5108"/>
<path d="M85.8 32.6001L67.9 101H102L85.8 32.6001Z" fill="#FD5108"/>
<path d="M90.3 21.3999C90.2901 22.2757 90.022 23.1291 89.5293 23.8532C89.0365 24.5773 88.341 25.1399 87.53 25.4705C86.7189 25.8011 85.8283 25.885 84.9698 25.7117C84.1113 25.5384 83.323 25.1156 82.7037 24.4963C82.0844 23.8769 81.6616 23.0887 81.4883 22.2301C81.315 21.3716 81.3989 20.481 81.7295 19.67C82.0601 18.8589 82.6227 18.1634 83.3468 17.6707C84.0709 17.1779 84.9242 16.9098 85.8 16.8999C86.3917 16.8974 86.9779 17.0121 87.525 17.2373C88.0721 17.4626 88.5693 17.794 88.9876 18.2123C89.406 18.6307 89.7374 19.1277 89.9626 19.6748C90.1879 20.2219 90.3025 20.8083 90.3 21.3999Z" fill="#CACAD9"/>
<path d="M87.1 38.2H84.1V0H87.1V38.2Z" fill="#CACAD9"/>
<path d="M85.3 6.59998L87.1 0H108.2L101.6 6.90002L106.7 12.2L86.3 12.7L85.3 6.59998Z" fill="#FD5109"/>
<path d="M29.5625 141V118.594H37.7188C40.2188 118.594 42.1406 119.052 43.4844 119.969C44.8281 120.885 45.5 122.177 45.5 123.844C45.5 125.052 45.0885 126.109 44.2656 127.016C43.4531 127.922 42.4115 128.552 41.1406 128.906V128.969C42.7344 129.167 44.0052 129.755 44.9531 130.734C45.9115 131.714 46.3906 132.906 46.3906 134.312C46.3906 136.365 45.6562 137.995 44.1875 139.203C42.7188 140.401 40.7135 141 38.1719 141H29.5625ZM34.6094 122.312V127.625H36.8281C37.8698 127.625 38.6875 127.375 39.2812 126.875C39.8854 126.365 40.1875 125.667 40.1875 124.781C40.1875 123.135 38.9583 122.312 36.5 122.312H34.6094ZM34.6094 131.375V137.281H37.3438C38.5104 137.281 39.4219 137.01 40.0781 136.469C40.7448 135.927 41.0781 135.188 41.0781 134.25C41.0781 133.354 40.75 132.651 40.0938 132.141C39.4479 131.63 38.5417 131.375 37.375 131.375H34.6094ZM52.1094 122.469C51.276 122.469 50.5938 122.224 50.0625 121.734C49.5312 121.234 49.2656 120.625 49.2656 119.906C49.2656 119.167 49.5312 118.562 50.0625 118.094C50.5938 117.625 51.276 117.391 52.1094 117.391C52.9531 117.391 53.6354 117.625 54.1562 118.094C54.6875 118.562 54.9531 119.167 54.9531 119.906C54.9531 120.656 54.6875 121.271 54.1562 121.75C53.6354 122.229 52.9531 122.469 52.1094 122.469ZM54.5469 141H49.6094V125H54.5469V141ZM74.3906 139.172C74.3906 142.141 73.5312 144.438 71.8125 146.062C70.0938 147.698 67.6042 148.516 64.3438 148.516C62.1875 148.516 60.4792 148.208 59.2188 147.594V143.438C60.8646 144.396 62.526 144.875 64.2031 144.875C65.8698 144.875 67.1615 144.432 68.0781 143.547C68.9948 142.672 69.4531 141.479 69.4531 139.969V138.703H69.3906C68.2656 140.495 66.6042 141.391 64.4062 141.391C62.3646 141.391 60.7448 140.672 59.5469 139.234C58.349 137.797 57.75 135.87 57.75 133.453C57.75 130.745 58.4167 128.594 59.75 127C61.0833 125.406 62.8385 124.609 65.0156 124.609C66.9635 124.609 68.4219 125.359 69.3906 126.859H69.4531V125H74.3906V139.172ZM69.5156 133.312V132.047C69.5156 131.036 69.2135 130.177 68.6094 129.469C68.0156 128.75 67.2396 128.391 66.2812 128.391C65.1875 128.391 64.3281 128.818 63.7031 129.672C63.0781 130.526 62.7656 131.729 62.7656 133.281C62.7656 134.615 63.0625 135.672 63.6562 136.453C64.25 137.224 65.0625 137.609 66.0938 137.609C67.1146 137.609 67.9375 137.219 68.5625 136.438C69.1979 135.646 69.5156 134.604 69.5156 133.312ZM94.7344 122.703H88.3438V141H83.2812V122.703H76.9219V118.594H94.7344V122.703ZM102.016 141.391C99.349 141.391 97.25 140.646 95.7188 139.156C94.1979 137.656 93.4375 135.625 93.4375 133.062C93.4375 130.417 94.2292 128.349 95.8125 126.859C97.3958 125.359 99.5365 124.609 102.234 124.609C104.891 124.609 106.974 125.359 108.484 126.859C109.995 128.349 110.75 130.323 110.75 132.781C110.75 135.438 109.969 137.536 108.406 139.078C106.854 140.62 104.724 141.391 102.016 141.391ZM102.141 128.391C100.974 128.391 100.068 128.792 99.4219 129.594C98.776 130.396 98.4531 131.531 98.4531 133C98.4531 136.073 99.6927 137.609 102.172 137.609C104.536 137.609 105.719 136.031 105.719 132.875C105.719 129.885 104.526 128.391 102.141 128.391ZM118.953 139.141H118.891V148.359H113.953V125H118.891V127.406H118.953C120.172 125.542 121.885 124.609 124.094 124.609C126.167 124.609 127.766 125.323 128.891 126.75C130.026 128.167 130.594 130.099 130.594 132.547C130.594 135.214 129.932 137.354 128.609 138.969C127.297 140.583 125.547 141.391 123.359 141.391C121.432 141.391 119.964 140.641 118.953 139.141ZM118.812 132.578V133.859C118.812 134.964 119.104 135.865 119.688 136.562C120.271 137.26 121.036 137.609 121.984 137.609C123.109 137.609 123.979 137.177 124.594 136.312C125.219 135.438 125.531 134.203 125.531 132.609C125.531 129.797 124.438 128.391 122.25 128.391C121.24 128.391 120.411 128.776 119.766 129.547C119.13 130.307 118.812 131.318 118.812 132.578ZM146.797 141H142.125V138.703H142.062C140.99 140.495 139.401 141.391 137.297 141.391C135.745 141.391 134.521 140.953 133.625 140.078C132.74 139.193 132.297 138.016 132.297 136.547C132.297 133.443 134.135 131.651 137.812 131.172L142.156 130.594C142.156 128.844 141.208 127.969 139.312 127.969C137.406 127.969 135.594 128.536 133.875 129.672V125.953C134.562 125.599 135.5 125.286 136.688 125.016C137.885 124.745 138.974 124.609 139.953 124.609C144.516 124.609 146.797 126.885 146.797 131.438V141ZM142.156 134.5V133.422L139.25 133.797C137.646 134.005 136.844 134.729 136.844 135.969C136.844 136.531 137.036 136.995 137.422 137.359C137.818 137.714 138.349 137.891 139.016 137.891C139.943 137.891 140.698 137.573 141.281 136.938C141.865 136.292 142.156 135.479 142.156 134.5Z" fill="#FD5109"/>
</svg>
