<svg width="171" height="103" viewBox="0 0 171 103" fill="none" xmlns="http://www.w3.org/2000/svg">
<path d="M82.8 32.5C82.8 32.5 69.4 58.9 47.6 76.5C18.8 99.7 0 103 0 103L52.2 101.3C52.2 101.3 72.9 71.1 82.8 32.5Z" fill="#FD5108"/>
<path d="M88.1 31.7998C88.1 31.7998 101.6 58.0997 123.4 75.6997C152.2 98.8997 171 102.2 171 102.2L118.8 100.6C118.8 100.6 98.1 70.3998 88.1 31.7998Z" fill="#FD5108"/>
<path d="M88.1 31.7998C88.1 31.7998 101.6 58.0997 123.4 75.6997C152.2 98.8997 171 102.2 171 102.2L118.8 100.6C118.8 100.6 98.1 70.3998 88.1 31.7998Z" fill="#FD5108"/>
<path d="M85.8 32.6001L67.9 101H102L85.8 32.6001Z" fill="#FD5108"/>
<path d="M90.3 21.3999C90.2901 22.2757 90.022 23.1291 89.5293 23.8532C89.0365 24.5773 88.341 25.1399 87.53 25.4705C86.7189 25.8011 85.8283 25.885 84.9698 25.7117C84.1113 25.5384 83.323 25.1156 82.7037 24.4963C82.0844 23.8769 81.6616 23.0887 81.4883 22.2301C81.315 21.3716 81.3989 20.481 81.7295 19.67C82.0601 18.8589 82.6227 18.1634 83.3468 17.6707C84.0709 17.1779 84.9242 16.9098 85.8 16.8999C86.3917 16.8974 86.9779 17.0121 87.525 17.2373C88.0721 17.4626 88.5693 17.794 88.9876 18.2123C89.406 18.6307 89.7374 19.1277 89.9626 19.6748C90.1879 20.2219 90.3025 20.8083 90.3 21.3999Z" fill="#CACAD9"/>
<path d="M87.1 38.2H84.1V0H87.1V38.2Z" fill="#CACAD9"/>
<path d="M85.3 6.59998L87.1 0H108.2L101.6 6.90002L106.7 12.2L86.3 12.7L85.3 6.59998Z" fill="#FD5109"/>
</svg>
